<?xml version="1.0" standalone="no"?>
<!DOCTYPE svg PUBLIC "-//W3C//DTD SVG 20010904//EN"
 "http://www.w3.org/TR/2001/REC-SVG-20010904/DTD/svg10.dtd">
<svg version="1.0" xmlns="http://www.w3.org/2000/svg"
 width="300.000000pt" height="153.000000pt" viewBox="0 0 300.000000 153.000000"
 preserveAspectRatio="xMidYMid meet">
<metadata>
Created by potrace 1.10, written by Peter Selinger 2001-2011
</metadata>
<g transform="translate(0.000000,153.000000) scale(0.100000,-0.100000)"
fill="#000000" stroke="none">
<path d="M1537 1412 c-20 -21 -27 -38 -27 -68 0 -35 -6 -46 -40 -77 -39 -35
-40 -37 -40 -105 0 -109 10 -162 30 -162 9 0 25 9 35 20 22 24 35 26 35 5 0
-24 12 -18 61 28 25 23 41 39 35 35 -27 -21 -34 -4 -46 117 -7 69 -10 150 -7
180 3 30 2 55 -2 55 -4 0 -19 -13 -34 -28z m26 -302 l2 -55 -31 0 -32 0 20 25
c16 20 18 34 13 80 -8 71 -20 86 -51 65 -35 -23 -29 -4 11 35 26 25 35 42 35
66 0 18 3 41 7 51 7 16 18 -103 26 -267z m-61 -24 c-16 -17 -17 -15 -22 40 -4
44 -1 64 10 78 14 17 15 14 22 -40 5 -47 3 -63 -10 -78z m-16 -45 c-13 -20
-26 -11 -26 16 0 25 1 26 16 11 9 -9 13 -21 10 -27z"/>
<path d="M1296 1228 c-39 -33 -47 -37 -42 -20 4 12 3 22 -2 22 -14 0 -112 -82
-112 -94 0 -5 11 1 24 13 l24 22 7 -58 c5 -32 9 -62 10 -68 1 -5 3 -27 3 -47
2 -46 16 -48 60 -8 35 32 40 43 17 34 -10 -4 -13 -2 -10 8 3 8 1 44 -4 79 -10
57 -9 66 8 82 18 18 18 17 20 -30 0 -26 9 -81 19 -121 l18 -73 44 40 c25 23
38 38 29 36 -9 -3 -16 0 -17 7 0 7 -8 51 -17 98 -9 47 -14 93 -11 103 7 28
-16 20 -68 -25z m42 -37 c-2 -22 0 -37 5 -34 5 3 7 -1 5 -8 -1 -8 4 -36 11
-62 10 -34 11 -51 3 -59 -7 -7 -13 1 -21 28 -15 58 -24 141 -18 159 11 28 19
15 15 -24z m-93 -81 c3 -30 8 -65 10 -77 4 -16 1 -23 -10 -23 -11 0 -15 11
-15 38 0 20 -5 54 -11 75 -10 38 -4 66 12 50 5 -5 11 -33 14 -63z"/>
<path d="M898 1135 c-27 -21 -51 -49 -54 -62 -9 -35 6 -134 21 -139 10 -4 83
36 92 52 2 2 0 2 -4 -1 -11 -8 -31 29 -35 65 -3 32 0 35 25 38 37 4 93 -31
123 -79 56 -89 10 -237 -110 -353 -35 -33 -70 -72 -77 -86 -13 -24 -29 -180
-19 -180 3 0 24 15 47 34 23 18 68 41 100 51 32 9 63 23 68 30 6 7 32 16 58
20 26 4 50 12 53 17 7 12 -115 1 -131 -12 -5 -4 -21 -10 -35 -13 -14 -4 -49
-22 -78 -42 -30 -19 -55 -35 -56 -35 -2 0 -2 20 -1 44 3 47 24 106 38 106 5 0
5 -5 2 -11 -11 -17 -8 -80 4 -92 6 -6 11 -7 12 -1 0 5 1 30 2 55 2 27 11 56
22 71 150 192 205 287 205 351 -1 65 -31 120 -96 170 -73 58 -107 59 -176 2z
m160 -15 c22 -17 50 -46 62 -64 25 -42 29 -129 6 -171 l-16 -30 0 61 c0 51 -5
68 -32 108 -38 58 -80 86 -130 86 -53 0 -64 -25 -44 -107 4 -20 -18 -52 -29
-41 -9 9 -11 84 -2 111 12 35 72 77 112 77 19 0 48 -12 73 -30z"/>
<path d="M1950 723 c-174 -30 -619 -147 -779 -204 -129 -47 -385 -189 -421
-234 -13 -17 -11 -17 20 2 103 62 150 87 238 127 53 25 124 52 157 61 33 9 84
25 113 36 61 22 103 25 57 4 -16 -8 -43 -17 -60 -21 l-30 -8 34 -4 c25 -3 42
3 70 26 20 16 68 38 106 50 137 41 301 81 394 96 69 12 102 22 127 41 19 14
34 28 34 31 0 4 -22 4 -60 -3z"/>
<path d="M2010 705 c-15 -18 -10 -45 12 -59 26 -16 53 14 44 48 -7 29 -36 35
-56 11z"/>
</g>
</svg>
