<?xml version="1.0" standalone="no"?>
<!DOCTYPE svg PUBLIC "-//W3C//DTD SVG 20010904//EN"
 "http://www.w3.org/TR/2001/REC-SVG-20010904/DTD/svg10.dtd">
<svg version="1.0" xmlns="http://www.w3.org/2000/svg"
 width="640.000000pt" height="640.000000pt" viewBox="0 0 640.000000 640.000000"
 preserveAspectRatio="xMidYMid meet">

<g transform="translate(0.000000,640.000000) scale(0.100000,-0.100000)"
fill="#000000" stroke="none">
<path d="M1210 5979 c-214 -45 -383 -140 -536 -302 -129 -134 -215 -303 -254
-494 -20 -102 -20 -114 -18 -2015 l3 -1913 26 -95 c102 -366 363 -627 729
-729 l95 -26 1945 0 1945 0 95 26 c366 102 627 363 729 729 l26 95 3 1913 c2
1901 2 1913 -18 2015 -43 208 -129 368 -279 517 -152 152 -311 238 -518 279
-100 21 -121 21 -1990 20 -1844 0 -1890 -1 -1983 -20z m3963 -406 c207 -79
334 -209 403 -413 18 -53 19 -124 19 -1960 0 -1836 -1 -1907 -19 -1960 -70
-208 -208 -346 -416 -416 -53 -18 -124 -19 -1960 -19 -1836 0 -1907 1 -1960
19 -103 35 -192 88 -260 156 -68 68 -121 157 -156 260 -18 53 -19 124 -19
1960 0 1836 1 1907 19 1960 55 162 162 294 292 362 67 34 143 62 194 71 14 3
876 4 1915 3 l1890 -1 58 -22z"/>
<path d="M4743 5189 c-155 -20 -276 -125 -323 -277 -50 -161 6 -329 144 -433
235 -178 584 -32 624 260 37 266 -181 485 -445 450z"/>
<path d="M3005 4585 c-223 -30 -448 -122 -634 -257 -150 -110 -335 -329 -423
-501 -172 -341 -194 -749 -58 -1116 136 -370 460 -692 828 -825 364 -131 768
-109 1102 59 178 90 396 273 508 426 309 425 357 994 124 1456 -88 172 -273
391 -423 501 -296 215 -663 307 -1024 257z m359 -400 c343 -60 624 -284 759
-605 54 -130 72 -223 72 -380 0 -157 -18 -250 -72 -380 -127 -302 -388 -521
-710 -597 -107 -25 -318 -25 -426 0 -323 76 -583 294 -710 597 -54 130 -72
223 -72 380 0 157 18 250 72 380 141 334 429 554 803 613 61 10 205 6 284 -8z"/>
</g>
</svg>
