<?xml version="1.0" standalone="no"?>
<!DOCTYPE svg PUBLIC "-//W3C//DTD SVG 20010904//EN"
 "http://www.w3.org/TR/2001/REC-SVG-20010904/DTD/svg10.dtd">
<svg version="1.0" xmlns="http://www.w3.org/2000/svg"
 width="300.000000pt" height="125.000000pt" viewBox="0 0 300.000000 125.000000"
 preserveAspectRatio="xMidYMid meet">

<g transform="translate(0.000000,125.000000) scale(0.100000,-0.100000)"
fill="#000000" stroke="none">
<path d="M1610 1240 c-191 -9 -235 -19 -295 -72 -57 -50 -81 -122 -96 -288
-15 -158 -6 -539 15 -631 28 -129 78 -189 179 -216 88 -24 658 -37 1032 -24
176 6 336 15 356 21 99 28 157 108 181 250 16 100 16 589 0 689 -24 141 -80
222 -173 250 -89 27 -786 39 -1199 21z m130 -255 l0 -54 -67 -3 -68 -3 -3
-342 -2 -343 -60 0 -60 0 0 345 0 345 -60 0 -60 0 0 55 0 55 190 0 190 0 0
-55z m490 -71 l0 -125 30 21 c75 53 134 47 167 -18 16 -32 18 -64 18 -257 0
-202 -2 -223 -20 -254 -34 -59 -88 -64 -158 -17 l-37 25 0 -24 c0 -24 -3 -25
-55 -25 l-55 0 0 400 0 400 55 0 55 0 0 -126z m500 -74 c46 -13 95 -65 109
-115 6 -22 11 -77 11 -122 l0 -83 -110 0 -110 0 0 -64 c0 -36 4 -76 9 -89 12
-30 43 -42 71 -27 16 9 20 21 20 60 l0 50 61 0 62 0 -6 -55 c-10 -99 -60 -155
-144 -162 -69 -6 -130 27 -160 87 -21 41 -23 58 -23 210 0 186 8 226 51 269
44 45 97 58 159 41z m-898 -252 c3 -230 5 -253 20 -256 10 -2 29 8 43 22 l25
25 0 231 0 231 55 -3 c30 -2 55 -6 55 -10 0 -5 0 -138 0 -298 l0 -290 -55 0
c-55 0 -55 0 -55 31 l0 31 -35 -31 c-61 -53 -123 -54 -150 -1 -12 24 -15 77
-15 300 l0 270 55 0 55 0 2 -252z"/>
<path d="M2260 737 l-25 -13 -3 -179 c-3 -174 -2 -181 19 -197 28 -23 56 -23
69 1 6 12 10 93 10 195 0 145 -3 177 -16 190 -19 19 -22 19 -54 3z"/>
<path d="M2655 736 c-13 -9 -20 -30 -23 -70 l-4 -56 51 0 51 0 0 60 c0 48 -4
61 -19 70 -26 13 -33 13 -56 -4z"/>
<path d="M6 1028 c4 -13 38 -122 75 -243 l69 -219 0 -163 0 -163 60 0 60 0 0
164 0 164 71 229 c40 125 74 234 76 241 4 9 -11 12 -56 12 -47 0 -62 -4 -69
-17 -5 -10 -25 -78 -43 -150 -19 -73 -36 -133 -39 -133 -3 0 -20 56 -38 126
-49 187 -41 174 -112 174 -59 0 -61 -1 -54 -22z"/>
<path d="M483 831 c-30 -14 -48 -32 -65 -63 -21 -40 -23 -55 -23 -228 0 -168
2 -189 21 -225 57 -110 222 -111 282 -2 14 27 17 61 17 227 0 226 -6 248 -85
288 -54 27 -92 28 -147 3z m111 -107 c12 -31 7 -369 -6 -382 -17 -17 -44 -15
-62 4 -13 13 -16 45 -16 193 0 124 4 181 12 189 17 17 65 15 72 -4z"/>
<path d="M802 559 l3 -281 29 -25 c36 -31 81 -27 132 12 l34 26 0 -25 c0 -25
2 -26 60 -26 l60 0 0 300 0 300 -60 0 -60 0 0 -233 0 -234 -24 -23 c-15 -13
-32 -20 -40 -17 -14 6 -16 40 -16 257 l0 250 -61 0 -60 0 3 -281z"/>
</g>
</svg>
